
        <svg xmlns="http://www.w3.org/2000/svg" xmlns:xlink="http://www.w3.org/1999/xlink" version="1.1" width="3162.263241741332" 
        height="776.616049521023" viewBox="0 0 3162.263241741332 776.616049521023">
			
			<g transform="scale(8.113162087066575) translate(10, 10)">
				<defs id="SvgjsDefs1333"></defs><g id="SvgjsG1334" featureKey="hmhgWD-0" transform="matrix(0.20866100577934998,0,0,0.20866100577934998,-6.259830173380499,-4.196267823260939)" fill="#ff471f"><g xmlns="http://www.w3.org/2000/svg"><g><path d="M143.717,194.049c17.711,9.509,39.442,14.33,64.59,14.33c42.109,0,76.249-12.476,80.003-13.897    c3.611-1.369,5.729-5.123,5.034-8.922c-0.695-3.8-4.007-6.56-7.869-6.56H147.501c-3.667,0-6.864,2.493-7.759,6.049    C138.849,188.605,140.486,192.313,143.717,194.049z"></path><path d="M288.299,328.518c-13.642-5.162-45.84-13.898-79.992-13.898c-25.146,0-46.879,4.822-64.592,14.333    c-3.23,1.734-4.868,5.443-3.975,8.999c0.895,3.556,4.092,6.049,7.759,6.049h137.969c3.863,0,7.175-2.761,7.869-6.561    C294.032,333.639,291.912,329.885,288.299,328.518z"></path><path d="M476,220.495c0.599-1.233,0.877-2.612,0.787-4.008c-0.386-6.013-5.244-17.937-9.524-25.537    c-9.13-16.211-21.49-26.745-35.751-30.467l-0.105-0.027c-0.603-0.159-1.723-0.456-3.127-0.456H326.255    c-3.666-11.704-13.646-20.078-25.081-20.078c-7.264,0-13.174,5.646-13.174,12.584V160H80.841    c-0.827-0.145-2.332-0.237-3.618,0.042C60.89,163.613,30,179.207,30,212.662v95.084c0,30.935,27.043,48.503,45.988,53.133    c0.94,0.52,2.378,1.121,4.234,1.121H288v7.636c0,7.124,6.155,13.374,13.172,13.374c12.285,0,22.411-8.755,25.558-21.01h101.55    c2.002,0,3.549-0.693,4.566-1.321c31.384-9.181,42.05-48.073,43.185-52.569c0.449-1.784,0.221-3.351-0.03-4.373V220.495z     M460.073,305.825c-0.945,3.28-3.285,10.424-7.545,17.902c-6.792,11.927-15.22,19.273-25.04,21.834    c-0.465,0.121-0.889,0.272-1.271,0.438H319.743c-4.401,0-7.976,3.556-8,7.956c-0.032,5.981-3.312,11.036-7.743,12.573V354    c0-4.418-3.582-8-8-8H82.114c-0.431-0.18-0.923-0.345-1.473-0.466C71.006,343.427,46,332.528,46,307.746v-95.084    c0-22.493,21.176-33.617,33.408-36.699c0.25,0.022,0.523,0.037,0.814,0.037H296c4.418,0,8-3.582,8-8v-11.513    c4.02,1.615,7.298,6.5,7.704,12.092c0.304,4.183,3.785,7.421,7.979,7.421h107.922c9.905,2.631,18.796,10.512,25.717,22.802    c3.289,5.839,5.844,12.454,6.933,16.191C460.088,215.635,460,216.307,460,217v87.7C460,305.103,460.028,305.479,460.073,305.825z"></path><path d="M282,208.271v105.066l50.18,14.452c5.715-16.394,24.441-79.237,0.153-133.561L282,208.271z"></path><path d="M156,213.123L102.209,201.6c-17.988,59.659-4.492,107.245,0.064,120.646L156,309.671V213.123z"></path><path d="M431.749,298.694c-5.475,0-9.764,5.773-9.764,13.144c0,7.367,4.289,13.138,9.764,13.138c5.466,0,9.748-5.771,9.748-13.138    C441.497,304.468,437.215,298.694,431.749,298.694z"></path><path d="M431.393,222.028c5.026,0,8.964-5.307,8.964-12.08c0-6.774-3.938-12.082-8.964-12.082c-5.034,0-8.978,5.308-8.978,12.082    C422.415,216.722,426.358,222.028,431.393,222.028z"></path></g></g></g><g id="SvgjsG1335" featureKey="1RRcwp-0" transform="matrix(2.551873065133452,0,0,2.551873065133452,111.3668015790264,16.475072268061545)" fill="#ffffff"><path d="M8.08 20.18 c-4.1 0 -7.44 -3.32 -7.44 -7.42 c0 -4.12 3.34 -7.46 7.44 -7.46 c1 0 1.98 0.2 2.9 0.58 c0.88 0.38 1.68 0.92 2.36 1.6 c0.7 0.7 1.24 1.48 1.6 2.38 c0.4 0.92 0.6 1.9 0.6 2.9 c0 0.84 -0.14 1.68 -0.44 2.46 c-0.22 0.64 -0.52 1.22 -0.9 1.76 l3.02 3.02 l-3.76 0 l-1.14 -1.14 c-0.54 0.38 -1.14 0.68 -1.76 0.9 c-0.8 0.28 -1.64 0.42 -2.48 0.42 z M8.08 7.960000000000001 c-2.62 0 -4.76 2.14 -4.76 4.8 c0 2.64 2.14 4.78 4.76 4.78 c0.8 0 1.6 -0.22 2.3 -0.62 l-3.6 -3.58 l1.9 -1.88 l3.58 3.58 c0.38 -0.68 0.58 -1.48 0.58 -2.28 c0 -2.66 -2.14 -4.8 -4.76 -4.8 z M22.900000000000002 20.22 c-1.16 0 -2.24 -0.42 -3.02 -1.2 c-0.82 -0.78 -1.26 -1.84 -1.26 -2.98 l0 -5.2 l2.52 0 l0 5.2 c0 0.94 0.78 1.7 1.76 1.7 s1.78 -0.76 1.78 -1.7 l0 -5.2 l2.52 0 l0 5.2 c0 1.12 -0.46 2.18 -1.28 2.98 c-0.8 0.78 -1.86 1.2 -3.02 1.2 z M32.56 20 l-2.6 0 l0 -9.16 l2.6 0 l0 9.16 z M31.26 9.74 c-0.86 0 -1.56 -0.7 -1.56 -1.54 c0 -0.42 0.16 -0.8 0.46 -1.08 c0.3 -0.3 0.68 -0.46 1.1 -0.46 c0.84 0 1.54 0.7 1.54 1.54 s-0.7 1.54 -1.54 1.54 z M39.32 20.2 c-1.28 0 -2.48 -0.5 -3.38 -1.38 l-0.02 -0.02 c-0.88 -0.9 -1.38 -2.1 -1.38 -3.38 s0.5 -2.5 1.38 -3.4 c0.9 -0.88 2.1 -1.38 3.4 -1.38 c1.32 0 2.52 0.48 3.38 1.38 c0.2 0.2 0.36 0.38 0.5 0.56 l0.24 0.36 l-1.96 1.46 l-0.28 -0.38 c-0.48 -0.64 -1.18 -1.04 -1.88 -1.04 c-1.26 0 -2.34 1.12 -2.34 2.44 s1.08 2.44 2.34 2.44 c0.7 0 1.4 -0.4 1.88 -1.08 l0.26 -0.36 l2.04 1.46 l-0.3 0.38 c-0.04 0.06 -0.1 0.12 -0.16 0.18 c-0.1 0.12 -0.22 0.26 -0.34 0.38 c-0.88 0.88 -2.08 1.38 -3.38 1.38 z M54.86 20 l-3.12 0 l-3.18 -4.06 l-0.82 0.84 l0 3.22 l-2.6 0 l0 -14.68 l2.6 0 l0 7.94 l2.52 -2.42 l3.54 0 l-3.44 3.28 z M69.4 20 l-2.66 0 l0 -9.52 l-3.72 5.08 l-3.7 -5.08 l0 9.52 l-2.66 0 l0 -14.24 l2.5 0 l3.86 5.3 l3.86 -5.3 l2.52 0 l0 14.24 z M76.66 20.22 c-1.24 0 -2.46 -0.5 -3.4 -1.4 c-0.9 -0.94 -1.4 -2.16 -1.4 -3.4 c0 -1.26 0.5 -2.48 1.4 -3.4 c0.92 -0.88 2.12 -1.38 3.4 -1.38 c1.32 0 2.52 0.5 3.38 1.38 c0.92 0.92 1.42 2.12 1.42 3.4 s-0.5 2.48 -1.42 3.4 c-0.9 0.9 -2.1 1.4 -3.38 1.4 z M76.66 12.92 c-1.34 0 -2.44 1.12 -2.44 2.5 s1.1 2.5 2.44 2.5 c1.36 0 2.46 -1.12 2.46 -2.5 s-1.1 -2.5 -2.46 -2.5 z M87.88 20 l-2.2 0 l-3.72 -9.16 l2.58 0 l2.24 5.48 l2.22 -5.48 l2.6 0 z M96.79999999999998 20.22 l-0.02 0 c-0.58 0 -1.18 -0.14 -1.74 -0.4 c-0.52 -0.22 -1 -0.58 -1.44 -1.04 c-0.7 -0.76 -1.12 -1.76 -1.22 -2.8 c-0.02 -0.18 -0.04 -0.36 -0.04 -0.56 c0 -0.4 0.06 -0.82 0.16 -1.24 c0.18 -0.8 0.56 -1.54 1.1 -2.1 c0.4 -0.44 0.86 -0.78 1.44 -1.06 c0.54 -0.26 1.14 -0.38 1.76 -0.38 c0.64 0 1.22 0.12 1.76 0.38 c0.6 0.28 1.08 0.64 1.44 1.06 c0.52 0.56 0.92 1.28 1.12 2.1 c0.1 0.38 0.14 0.78 0.14 1.24 l0 0.46 l-6.72 0 l0.02 0.14 c0.26 1.24 1.2 2.14 2.24 2.14 l0.02 0 c0.58 -0.04 1.22 -0.4 1.6 -0.72 l0.22 -0.18 l1.66 1.44 l-0.3 0.26 c-0.22 0.2 -0.5 0.44 -0.8 0.6 l-0.02 0 c-0.72 0.42 -1.5 0.64 -2.38 0.66 z M96.79999999999998 12.719999999999999 c-0.78 0 -1.56 0.54 -1.98 1.38 l-0.08 0.16 l4.14 0 l-0.08 -0.16 c-0.46 -0.86 -1.22 -1.38 -2 -1.38 z"></path></g>
			</g>
		</svg>
	